<svg xmlns="http://www.w3.org/2000/svg" viewBox="0 0 64 64" width="64" height="64">
  <!-- Bodhanika favicon — infinity knot, transparent background -->
  <!-- Outer knot — emerald -->
  <path d="M 32,32
    C 32,24 24,16 16,16
    C 8,16  4,22  4,28
    C 4,36  10,42  18,40
    C 24,38 28,34 32,32
    C 36,30 40,26 46,24
    C 54,22 60,28 60,36
    C 60,42 56,48 48,48
    C 40,48 32,40 32,32 Z"
    fill="none" stroke="#34D399" stroke-width="4.5"
    stroke-linecap="round" stroke-linejoin="round"/>
  <!-- Inner path — dashed blue -->
  <path d="M 16,16
    C 10,16  4,21  4,28
    C 4,33  7,37  12,40
    C 18,44 26,38 32,32
    C 38,26 46,21 54,26
    C 59,29 60,34 60,36
    C 60,44 52,48 48,48
    C 40,48 34,42 32,32"
    fill="none" stroke="#60A5FA" stroke-width="3"
    stroke-linecap="round" stroke-linejoin="round"
    stroke-dasharray="6,4"/>
  <!-- Centre node -->
  <circle cx="32" cy="32" r="5.5" fill="#0d1b2a"/>
  <circle cx="32" cy="32" r="3.8" fill="#FCD34D"/>
  <circle cx="32" cy="32" r="1.8" fill="#FFFBEB"/>
</svg>
