<svg xmlns="http://www.w3.org/2000/svg" viewBox="0 0 512 512" width="512" height="512">
  <!--
    Bodhanika — Infinity Knot Icon
    Two intertwined paths: curiosity + understanding
    Transparent background — add dark bg only in app context
  -->
  <!-- Outer knot — solid emerald/teal -->
  <path d="M 256,256
    C 256,196 194,136 138,136
    C 82,136  44,182  44,232
    C 44,292  96,334  150,320
    C 198,308 230,268 256,256
    C 282,244 314,204 362,192
    C 418,178 468,222 468,280
    C 468,330 430,374 374,374
    C 318,374 256,314 256,256 Z"
    fill="none" stroke="#34D399" stroke-width="30"
    stroke-linecap="round" stroke-linejoin="round"/>
  <!-- Inner path — dashed blue -->
  <path d="M 138,136
    C 96,136  44,170  44,232
    C 44,262  60,290  86,306
    C 140,342 206,298 256,256
    C 306,214 372,170 430,208
    C 462,228 468,258 468,280
    C 468,342 410,374 374,374
    C 318,374 268,330 256,256"
    fill="none" stroke="#60A5FA" stroke-width="18"
    stroke-linecap="round" stroke-linejoin="round"
    stroke-dasharray="40,26"/>
  <!-- Centre node -->
  <circle cx="256" cy="256" r="30" fill="#0d1b2a"/>
  <circle cx="256" cy="256" r="22" fill="#FCD34D"/>
  <circle cx="256" cy="256" r="11" fill="#FFFBEB"/>
  <circle cx="248" cy="248" r="4.5" fill="white" opacity="0.55"/>
</svg>
